<mxfile host="app.diagrams.net" modified="2022-06-29T08:48:38.908Z" agent="5.0 (Windows NT 10.0; Win64; x64) AppleWebKit/537.36 (KHTML, like Gecko) Chrome/103.0.0.0 Safari/537.36" etag="Ph5XJFHNBSh3odD-tcm_" version="20.0.3" type="github" pages="3">
  <diagram id="HZe9n2l0ClVb4Da5Xwr6" name="DataMining">
    <mxGraphModel dx="1124" dy="620" grid="1" gridSize="10" guides="1" tooltips="1" connect="1" arrows="1" fold="1" page="1" pageScale="1" pageWidth="1169" pageHeight="827" math="0" shadow="0">
      <root>
        <mxCell id="0" />
        <mxCell id="1" parent="0" />
        <mxCell id="1s-YOk3iyrwi0xUX-N1H-1" value="Lesson Plan" style="swimlane;fontStyle=1;childLayout=stackLayout;horizontal=1;startSize=30;horizontalStack=0;resizeParent=1;resizeParentMax=0;resizeLast=0;collapsible=1;marginBottom=0;fontFamily=Barlow Condensed;fontSource=https%3A%2F%2Ffonts.googleapis.com%2Fcss%3Ffamily%3DBarlow%2BCondensed;fontSize=22;fillColor=#6a00ff;fontColor=#ffffff;strokeColor=none;" parent="1" vertex="1">
          <mxGeometry x="50" y="50" width="660" height="360" as="geometry" />
        </mxCell>
        <mxCell id="1s-YOk3iyrwi0xUX-N1H-2" value="Introductions: Who am I? Who are you? (20 min)" style="text;strokeColor=#6c8ebf;fillColor=#dae8fc;align=left;verticalAlign=middle;spacingLeft=4;spacingRight=4;overflow=hidden;points=[[0,0.5],[1,0.5]];portConstraint=eastwest;rotatable=0;fontFamily=Barlow Condensed;fontSource=https%3A%2F%2Ffonts.googleapis.com%2Fcss%3Ffamily%3DBarlow%2BCondensed;fontSize=22;" parent="1s-YOk3iyrwi0xUX-N1H-1" vertex="1">
          <mxGeometry y="30" width="660" height="30" as="geometry" />
        </mxCell>
        <mxCell id="1s-YOk3iyrwi0xUX-N1H-3" value="Group Discussion: Why Data Mining? &amp; The Methodology of ML" style="text;strokeColor=none;fillColor=#dae8fc;align=left;verticalAlign=middle;spacingLeft=4;spacingRight=4;overflow=hidden;points=[[0,0.5],[1,0.5]];portConstraint=eastwest;rotatable=0;fontFamily=Barlow Condensed;fontSource=https%3A%2F%2Ffonts.googleapis.com%2Fcss%3Ffamily%3DBarlow%2BCondensed;fontSize=22;" parent="1s-YOk3iyrwi0xUX-N1H-1" vertex="1">
          <mxGeometry y="60" width="660" height="30" as="geometry" />
        </mxCell>
        <mxCell id="OiCcg-KcF_1ikjrQXfSO-2" value="Discussion: Python Data Science Review" style="text;strokeColor=none;fillColor=#dae8fc;align=left;verticalAlign=middle;spacingLeft=4;spacingRight=4;overflow=hidden;points=[[0,0.5],[1,0.5]];portConstraint=eastwest;rotatable=0;fontFamily=Barlow Condensed;fontSource=https%3A%2F%2Ffonts.googleapis.com%2Fcss%3Ffamily%3DBarlow%2BCondensed;fontSize=22;" vertex="1" parent="1s-YOk3iyrwi0xUX-N1H-1">
          <mxGeometry y="90" width="660" height="30" as="geometry" />
        </mxCell>
        <mxCell id="1s-YOk3iyrwi0xUX-N1H-7" value="1 HOUR MARK                                   BREAK                                 (5-10 min) " style="text;strokeColor=none;fillColor=#FFFF33;align=left;verticalAlign=middle;spacingLeft=4;spacingRight=4;overflow=hidden;points=[[0,0.5],[1,0.5]];portConstraint=eastwest;rotatable=0;fontFamily=Barlow Condensed;fontSource=https%3A%2F%2Ffonts.googleapis.com%2Fcss%3Ffamily%3DBarlow%2BCondensed;fontSize=22;fontStyle=0;fontColor=#000000;" parent="1s-YOk3iyrwi0xUX-N1H-1" vertex="1">
          <mxGeometry y="120" width="660" height="30" as="geometry" />
        </mxCell>
        <mxCell id="OiCcg-KcF_1ikjrQXfSO-1" value="Discussion: Data Mining with Quantitative Features (PART 1)" style="text;strokeColor=none;fillColor=#dae8fc;align=left;verticalAlign=middle;spacingLeft=4;spacingRight=4;overflow=hidden;points=[[0,0.5],[1,0.5]];portConstraint=eastwest;rotatable=0;fontFamily=Barlow Condensed;fontSource=https%3A%2F%2Ffonts.googleapis.com%2Fcss%3Ffamily%3DBarlow%2BCondensed;fontSize=22;" vertex="1" parent="1s-YOk3iyrwi0xUX-N1H-1">
          <mxGeometry y="150" width="660" height="30" as="geometry" />
        </mxCell>
        <mxCell id="1s-YOk3iyrwi0xUX-N1H-15" value="Individual Challenges: 10min  x3" style="text;strokeColor=#006EAF;fillColor=#1ba1e2;align=left;verticalAlign=middle;spacingLeft=4;spacingRight=4;overflow=hidden;points=[[0,0.5],[1,0.5]];portConstraint=eastwest;rotatable=0;fontFamily=Barlow Condensed;fontSource=https%3A%2F%2Ffonts.googleapis.com%2Fcss%3Ffamily%3DBarlow%2BCondensed;fontSize=22;fontColor=#ffffff;" parent="1s-YOk3iyrwi0xUX-N1H-1" vertex="1">
          <mxGeometry y="180" width="660" height="30" as="geometry" />
        </mxCell>
        <mxCell id="1s-YOk3iyrwi0xUX-N1H-13" value="2 HOUR MARK                                GROUPs &amp; BREAK                 (5 min)" style="text;strokeColor=none;fillColor=#FFFF33;align=left;verticalAlign=middle;spacingLeft=4;spacingRight=4;overflow=hidden;points=[[0,0.5],[1,0.5]];portConstraint=eastwest;rotatable=0;fontFamily=Barlow Condensed;fontSource=https%3A%2F%2Ffonts.googleapis.com%2Fcss%3Ffamily%3DBarlow%2BCondensed;fontSize=22;fontStyle=0;fontColor=#000000;" parent="1s-YOk3iyrwi0xUX-N1H-1" vertex="1">
          <mxGeometry y="210" width="660" height="30" as="geometry" />
        </mxCell>
        <mxCell id="1s-YOk3iyrwi0xUX-N1H-14" value="Discussion: Data Mining with Categorical Features (PART 2)" style="text;strokeColor=none;fillColor=#dae8fc;align=left;verticalAlign=middle;spacingLeft=4;spacingRight=4;overflow=hidden;points=[[0,0.5],[1,0.5]];portConstraint=eastwest;rotatable=0;fontFamily=Barlow Condensed;fontSource=https%3A%2F%2Ffonts.googleapis.com%2Fcss%3Ffamily%3DBarlow%2BCondensed;fontSize=22;" parent="1s-YOk3iyrwi0xUX-N1H-1" vertex="1">
          <mxGeometry y="240" width="660" height="30" as="geometry" />
        </mxCell>
        <mxCell id="OiCcg-KcF_1ikjrQXfSO-4" value="Group Challenges: 15min-20min x2" style="text;strokeColor=#006EAF;fillColor=#1ba1e2;align=left;verticalAlign=middle;spacingLeft=4;spacingRight=4;overflow=hidden;points=[[0,0.5],[1,0.5]];portConstraint=eastwest;rotatable=0;fontFamily=Barlow Condensed;fontSource=https%3A%2F%2Ffonts.googleapis.com%2Fcss%3Ffamily%3DBarlow%2BCondensed;fontSize=22;fontColor=#ffffff;" vertex="1" parent="1s-YOk3iyrwi0xUX-N1H-1">
          <mxGeometry y="270" width="660" height="30" as="geometry" />
        </mxCell>
        <mxCell id="1s-YOk3iyrwi0xUX-N1H-17" value="3 HOUR MARK                                 " style="text;strokeColor=none;fillColor=#FFFF33;align=left;verticalAlign=middle;spacingLeft=4;spacingRight=4;overflow=hidden;points=[[0,0.5],[1,0.5]];portConstraint=eastwest;rotatable=0;fontFamily=Barlow Condensed;fontSource=https%3A%2F%2Ffonts.googleapis.com%2Fcss%3Ffamily%3DBarlow%2BCondensed;fontSize=22;fontStyle=0;fontColor=#000000;" parent="1s-YOk3iyrwi0xUX-N1H-1" vertex="1">
          <mxGeometry y="300" width="660" height="30" as="geometry" />
        </mxCell>
        <mxCell id="1s-YOk3iyrwi0xUX-N1H-18" value="Next Steps, Review &amp; Finish " style="text;strokeColor=none;fillColor=#dae8fc;align=left;verticalAlign=middle;spacingLeft=4;spacingRight=4;overflow=hidden;points=[[0,0.5],[1,0.5]];portConstraint=eastwest;rotatable=0;fontFamily=Barlow Condensed;fontSource=https%3A%2F%2Ffonts.googleapis.com%2Fcss%3Ffamily%3DBarlow%2BCondensed;fontSize=22;" parent="1s-YOk3iyrwi0xUX-N1H-1" vertex="1">
          <mxGeometry y="330" width="660" height="30" as="geometry" />
        </mxCell>
        <mxCell id="1s-YOk3iyrwi0xUX-N1H-19" value="Introduction to &lt;br&gt;Data Mining" style="ellipse;shape=cloud;whiteSpace=wrap;html=1;fillColor=#FFFF33;strokeColor=none;fontFamily=Barlow Condensed;fontSource=https%3A%2F%2Ffonts.googleapis.com%2Fcss%3Ffamily%3DBarlow%2BCondensed;fontSize=32;fontStyle=1" parent="1" vertex="1">
          <mxGeometry x="700" y="10" width="456" height="271.52" as="geometry" />
        </mxCell>
        <mxCell id="1s-YOk3iyrwi0xUX-N1H-20" value="Safeguarding" style="rounded=1;whiteSpace=wrap;html=1;fontFamily=Barlow Condensed;fontSource=https%3A%2F%2Ffonts.googleapis.com%2Fcss%3Ffamily%3DBarlow%2BCondensed;fontSize=22;fillColor=#FFFF33;strokeColor=none;fontStyle=1" parent="1" vertex="1">
          <mxGeometry x="836" y="475" width="270" height="60" as="geometry" />
        </mxCell>
        <mxCell id="1s-YOk3iyrwi0xUX-N1H-21" value="Courseware" style="rounded=1;whiteSpace=wrap;html=1;fontFamily=Barlow Condensed;fontSource=https%3A%2F%2Ffonts.googleapis.com%2Fcss%3Ffamily%3DBarlow%2BCondensed;fontSize=22;fillColor=#FFFF33;strokeColor=none;fontStyle=1" parent="1" vertex="1">
          <mxGeometry x="836" y="750" width="270" height="60" as="geometry" />
        </mxCell>
        <mxCell id="1s-YOk3iyrwi0xUX-N1H-22" value="Introductions" style="rounded=1;whiteSpace=wrap;html=1;fontFamily=Barlow Condensed;fontSource=https%3A%2F%2Ffonts.googleapis.com%2Fcss%3Ffamily%3DBarlow%2BCondensed;fontSize=22;fillColor=#FFFF33;strokeColor=none;fontStyle=1" parent="1" vertex="1">
          <mxGeometry x="836" y="350" width="270" height="60" as="geometry" />
        </mxCell>
        <mxCell id="1s-YOk3iyrwi0xUX-N1H-23" value="Values &amp;amp; Principles" style="rounded=1;whiteSpace=wrap;html=1;fontFamily=Barlow Condensed;fontSource=https%3A%2F%2Ffonts.googleapis.com%2Fcss%3Ffamily%3DBarlow%2BCondensed;fontSize=22;fillColor=#FFFF33;strokeColor=none;fontStyle=1" parent="1" vertex="1">
          <mxGeometry x="836" y="412" width="270" height="60" as="geometry" />
        </mxCell>
        <UserObject label="https://github.com/michaelburgess-d/modules-public-live" link="https://github.com/michaelburgess-d/decoded-public-code" id="1s-YOk3iyrwi0xUX-N1H-24">
          <mxCell style="text;whiteSpace=wrap;html=1;fontSize=26;fontFamily=Barlow Condensed;fontSource=https%3A%2F%2Ffonts.googleapis.com%2Fcss%3Ffamily%3DBarlow%2BCondensed;fontStyle=1;strokeColor=none;" parent="1" vertex="1">
            <mxGeometry x="40" y="720" width="650" height="40" as="geometry" />
          </mxCell>
        </UserObject>
        <mxCell id="1s-YOk3iyrwi0xUX-N1H-25" value="Wellbeing" style="rounded=1;whiteSpace=wrap;html=1;fontFamily=Barlow Condensed;fontSource=https%3A%2F%2Ffonts.googleapis.com%2Fcss%3Ffamily%3DBarlow%2BCondensed;fontSize=22;fillColor=#1ba1e2;strokeColor=none;fontStyle=0;fontColor=#ffffff;" parent="1" vertex="1">
          <mxGeometry x="886" y="540" width="270" height="60" as="geometry" />
        </mxCell>
        <mxCell id="1s-YOk3iyrwi0xUX-N1H-26" value="safeguarding@decoded.com" style="rounded=1;whiteSpace=wrap;html=1;fontFamily=Barlow Condensed;fontSource=https%3A%2F%2Ffonts.googleapis.com%2Fcss%3Ffamily%3DBarlow%2BCondensed;fontSize=22;fillColor=#1ba1e2;strokeColor=#006EAF;fontStyle=1;fontColor=#ffffff;" parent="1" vertex="1">
          <mxGeometry x="886" y="610" width="270" height="60" as="geometry" />
        </mxCell>
        <mxCell id="1s-YOk3iyrwi0xUX-N1H-27" value="stressed, overwhelmed, struggling" style="rounded=1;whiteSpace=wrap;html=1;fontFamily=Barlow Condensed;fontSource=https%3A%2F%2Ffonts.googleapis.com%2Fcss%3Ffamily%3DBarlow%2BCondensed;fontSize=22;fillColor=#1ba1e2;strokeColor=#006EAF;fontStyle=0;fontColor=#ffffff;" parent="1" vertex="1">
          <mxGeometry x="886" y="680" width="270" height="60" as="geometry" />
        </mxCell>
      </root>
    </mxGraphModel>
  </diagram>
  <diagram id="FQNEyGZjBZP-qWt80UYz" name="WhyDM?">
    <mxGraphModel dx="1058" dy="584" grid="1" gridSize="10" guides="1" tooltips="1" connect="1" arrows="1" fold="1" page="1" pageScale="1" pageWidth="1169" pageHeight="827" math="0" shadow="0">
      <root>
        <mxCell id="0" />
        <mxCell id="1" parent="0" />
        <mxCell id="IGcCVWle85ZSUiZv3Qsg-15" value="Data Mining" style="whiteSpace=wrap;html=1;aspect=fixed;" vertex="1" parent="1">
          <mxGeometry x="235" y="470" width="305" height="305" as="geometry" />
        </mxCell>
        <mxCell id="nlSSzks4sH9F-buimGiN-1" value="Why Data Mining?" style="ellipse;shape=cloud;whiteSpace=wrap;html=1;fillColor=#FFFF33;strokeColor=none;fontFamily=Barlow Condensed;fontSource=https%3A%2F%2Ffonts.googleapis.com%2Fcss%3Ffamily%3DBarlow%2BCondensed;fontSize=32;fontStyle=1" parent="1" vertex="1">
          <mxGeometry x="50" y="60" width="285.5" height="170" as="geometry" />
        </mxCell>
        <mxCell id="IGcCVWle85ZSUiZv3Qsg-1" value="" style="ellipse;whiteSpace=wrap;html=1;aspect=fixed;" vertex="1" parent="1">
          <mxGeometry x="90" y="290" width="80" height="80" as="geometry" />
        </mxCell>
        <mxCell id="IGcCVWle85ZSUiZv3Qsg-4" value="" style="ellipse;whiteSpace=wrap;html=1;aspect=fixed;" vertex="1" parent="1">
          <mxGeometry x="240" y="260" width="80" height="80" as="geometry" />
        </mxCell>
        <mxCell id="IGcCVWle85ZSUiZv3Qsg-5" value="Patterns in Data" style="ellipse;whiteSpace=wrap;html=1;aspect=fixed;" vertex="1" parent="1">
          <mxGeometry x="400" y="90" width="80" height="80" as="geometry" />
        </mxCell>
        <mxCell id="IGcCVWle85ZSUiZv3Qsg-6" value="Prediction" style="ellipse;whiteSpace=wrap;html=1;aspect=fixed;" vertex="1" parent="1">
          <mxGeometry x="390" y="200" width="80" height="80" as="geometry" />
        </mxCell>
        <mxCell id="IGcCVWle85ZSUiZv3Qsg-8" value="Data Mining = Machine Learning" style="shape=callout;whiteSpace=wrap;html=1;perimeter=calloutPerimeter;" vertex="1" parent="1">
          <mxGeometry x="610" y="50" width="120" height="80" as="geometry" />
        </mxCell>
        <mxCell id="IGcCVWle85ZSUiZv3Qsg-9" value="Data Mining = &lt;br&gt;Any techniques to explore data &quot;research&quot;" style="shape=callout;whiteSpace=wrap;html=1;perimeter=calloutPerimeter;" vertex="1" parent="1">
          <mxGeometry x="610" y="160" width="120" height="110" as="geometry" />
        </mxCell>
        <mxCell id="IGcCVWle85ZSUiZv3Qsg-11" value="Machine Learning" style="rounded=1;whiteSpace=wrap;html=1;" vertex="1" parent="1">
          <mxGeometry x="540" y="280" width="120" height="60" as="geometry" />
        </mxCell>
        <mxCell id="IGcCVWle85ZSUiZv3Qsg-12" value="What&#39;s relevant to &lt;br&gt;Data Mining?" style="ellipse;shape=cloud;whiteSpace=wrap;html=1;fillColor=#FFFF33;strokeColor=none;fontFamily=Barlow Condensed;fontSource=https%3A%2F%2Ffonts.googleapis.com%2Fcss%3Ffamily%3DBarlow%2BCondensed;fontSize=32;fontStyle=1" vertex="1" parent="1">
          <mxGeometry x="670" y="280" width="285.5" height="170" as="geometry" />
        </mxCell>
        <mxCell id="IGcCVWle85ZSUiZv3Qsg-16" value="WEAK" style="edgeStyle=orthogonalEdgeStyle;rounded=0;orthogonalLoop=1;jettySize=auto;html=1;exitX=1;exitY=0.5;exitDx=0;exitDy=0;" edge="1" parent="1" source="IGcCVWle85ZSUiZv3Qsg-13" target="IGcCVWle85ZSUiZv3Qsg-26">
          <mxGeometry relative="1" as="geometry" />
        </mxCell>
        <mxCell id="IGcCVWle85ZSUiZv3Qsg-22" value="STRONG" style="edgeStyle=orthogonalEdgeStyle;rounded=0;orthogonalLoop=1;jettySize=auto;html=1;exitX=0;exitY=0.5;exitDx=0;exitDy=0;" edge="1" parent="1" source="IGcCVWle85ZSUiZv3Qsg-13">
          <mxGeometry relative="1" as="geometry">
            <mxPoint x="90" y="514.8235294117646" as="targetPoint" />
          </mxGeometry>
        </mxCell>
        <mxCell id="IGcCVWle85ZSUiZv3Qsg-27" value="WEAK" style="edgeStyle=orthogonalEdgeStyle;rounded=0;orthogonalLoop=1;jettySize=auto;html=1;exitX=1;exitY=0.5;exitDx=0;exitDy=0;entryX=0;entryY=0.5;entryDx=0;entryDy=0;" edge="1" parent="1" source="IGcCVWle85ZSUiZv3Qsg-13" target="IGcCVWle85ZSUiZv3Qsg-14">
          <mxGeometry relative="1" as="geometry">
            <Array as="points">
              <mxPoint x="305" y="560" />
              <mxPoint x="475" y="560" />
              <mxPoint x="475" y="589" />
            </Array>
          </mxGeometry>
        </mxCell>
        <mxCell id="IGcCVWle85ZSUiZv3Qsg-13" value="AI" style="ellipse;whiteSpace=wrap;html=1;aspect=fixed;" vertex="1" parent="1">
          <mxGeometry x="175" y="450" width="130" height="130" as="geometry" />
        </mxCell>
        <mxCell id="IGcCVWle85ZSUiZv3Qsg-29" style="edgeStyle=orthogonalEdgeStyle;rounded=0;orthogonalLoop=1;jettySize=auto;html=1;exitX=0.5;exitY=1;exitDx=0;exitDy=0;entryX=0.5;entryY=0;entryDx=0;entryDy=0;" edge="1" parent="1" source="IGcCVWle85ZSUiZv3Qsg-14" target="IGcCVWle85ZSUiZv3Qsg-24">
          <mxGeometry relative="1" as="geometry" />
        </mxCell>
        <mxCell id="IGcCVWle85ZSUiZv3Qsg-30" style="edgeStyle=orthogonalEdgeStyle;rounded=0;orthogonalLoop=1;jettySize=auto;html=1;exitX=0.5;exitY=1;exitDx=0;exitDy=0;entryX=0.5;entryY=0;entryDx=0;entryDy=0;" edge="1" parent="1" source="IGcCVWle85ZSUiZv3Qsg-14" target="IGcCVWle85ZSUiZv3Qsg-25">
          <mxGeometry relative="1" as="geometry" />
        </mxCell>
        <mxCell id="IGcCVWle85ZSUiZv3Qsg-31" style="edgeStyle=orthogonalEdgeStyle;rounded=0;orthogonalLoop=1;jettySize=auto;html=1;exitX=0.5;exitY=1;exitDx=0;exitDy=0;" edge="1" parent="1" source="IGcCVWle85ZSUiZv3Qsg-14">
          <mxGeometry relative="1" as="geometry">
            <mxPoint x="539.6470588235295" y="679.9999999999998" as="targetPoint" />
          </mxGeometry>
        </mxCell>
        <mxCell id="IGcCVWle85ZSUiZv3Qsg-14" value="Machine Learning" style="rounded=1;whiteSpace=wrap;html=1;" vertex="1" parent="1">
          <mxGeometry x="480" y="592.5" width="120" height="60" as="geometry" />
        </mxCell>
        <mxCell id="IGcCVWle85ZSUiZv3Qsg-17" value="purpose, vs. technical content" style="shape=callout;whiteSpace=wrap;html=1;perimeter=calloutPerimeter;" vertex="1" parent="1">
          <mxGeometry x="770" y="630" width="120" height="80" as="geometry" />
        </mxCell>
        <mxCell id="IGcCVWle85ZSUiZv3Qsg-21" value="weak ai = building tools which automate specialised tasks which are specified by humans (and may require intellingence in humans)" style="shape=callout;whiteSpace=wrap;html=1;perimeter=calloutPerimeter;" vertex="1" parent="1">
          <mxGeometry x="125" y="370" width="230" height="115" as="geometry" />
        </mxCell>
        <mxCell id="IGcCVWle85ZSUiZv3Qsg-23" value="strong ai = a system which itself is capable of, eg., buildings tools, formulating problems, etc." style="rounded=1;whiteSpace=wrap;html=1;" vertex="1" parent="1">
          <mxGeometry x="20" y="530" width="120" height="110" as="geometry" />
        </mxCell>
        <mxCell id="IGcCVWle85ZSUiZv3Qsg-24" value="Supervised&amp;nbsp;&lt;br&gt;(Q&amp;amp;A, using past Q&amp;amp;A)" style="rounded=1;whiteSpace=wrap;html=1;" vertex="1" parent="1">
          <mxGeometry x="380" y="690" width="160" height="60" as="geometry" />
        </mxCell>
        <mxCell id="IGcCVWle85ZSUiZv3Qsg-25" value="Unsupervised&lt;br&gt;(Descriptive, Summative)" style="rounded=1;whiteSpace=wrap;html=1;" vertex="1" parent="1">
          <mxGeometry x="570" y="690" width="150" height="60" as="geometry" />
        </mxCell>
        <mxCell id="IGcCVWle85ZSUiZv3Qsg-28" value="RULES ... mean(...)" style="edgeStyle=orthogonalEdgeStyle;rounded=0;orthogonalLoop=1;jettySize=auto;html=1;exitX=0.5;exitY=1;exitDx=0;exitDy=0;entryX=0.5;entryY=0;entryDx=0;entryDy=0;" edge="1" parent="1" source="IGcCVWle85ZSUiZv3Qsg-26" target="IGcCVWle85ZSUiZv3Qsg-14">
          <mxGeometry relative="1" as="geometry" />
        </mxCell>
        <mxCell id="IGcCVWle85ZSUiZv3Qsg-26" value="Programming" style="rounded=1;whiteSpace=wrap;html=1;" vertex="1" parent="1">
          <mxGeometry x="480" y="485" width="120" height="60" as="geometry" />
        </mxCell>
      </root>
    </mxGraphModel>
  </diagram>
  <diagram id="60TBSpKbcrb7sZuhDopD" name="MethodologyOfML">
    <mxGraphModel dx="1798" dy="992" grid="1" gridSize="10" guides="1" tooltips="1" connect="1" arrows="1" fold="1" page="1" pageScale="1" pageWidth="1169" pageHeight="827" math="0" shadow="0">
      <root>
        <mxCell id="0" />
        <mxCell id="1" parent="0" />
        <mxCell id="pQzvOpCIlJlVPnzxoivr-1" value="The Methodology of ML" style="ellipse;shape=cloud;whiteSpace=wrap;html=1;fillColor=#FFFF33;strokeColor=none;fontFamily=Barlow Condensed;fontSource=https%3A%2F%2Ffonts.googleapis.com%2Fcss%3Ffamily%3DBarlow%2BCondensed;fontSize=32;fontStyle=1" vertex="1" parent="1">
          <mxGeometry x="50" y="60" width="386.26" height="230" as="geometry" />
        </mxCell>
      </root>
    </mxGraphModel>
  </diagram>
</mxfile>
